<?xml version="1.0" encoding="UTF-8"?>
<svg version="1.1" xmlns="http://www.w3.org/2000/svg" width="512" height="512">
<path d="M0 0 C12.75450582 10.03999 16.66276748 23.51325229 20.38525391 38.67675781 C20.67919194 39.85336346 20.97312998 41.0299691 21.27597523 42.24222946 C22.07680737 45.45258427 22.87241283 48.66414854 23.66574931 51.87635803 C24.51201055 55.29709042 25.36526797 58.71607723 26.2177887 62.13525391 C27.66909224 67.95959819 29.11640696 73.78492066 30.56088257 79.61096191 C32.82776998 88.75357891 35.10303688 97.89409916 37.38012695 107.03417969 C37.75961823 108.55753682 38.13910845 110.08089421 38.5185976 111.60425186 C39.08461336 113.87634677 39.65064089 116.14843873 40.2167111 118.42052007 C41.3394146 122.92698381 42.46149935 127.43360105 43.58306581 131.94034791 C48.47604222 151.60134854 53.40082453 171.25371043 58.40673828 190.8862915 C59.37834121 194.70061695 60.34612248 198.5158905 61.3125 202.33154297 C61.47663328 202.97958075 61.64076656 203.62761852 61.80987358 204.29529381 C62.49603943 207.00447147 63.18217863 209.71365588 63.86816788 212.42287827 C66.51156344 222.85997041 69.17192173 233.29265844 71.83935547 243.72363281 C74.96342004 255.94081922 78.07001143 268.16236015 81.16251659 280.38757324 C83.06659863 287.91239429 84.9827353 295.43392646 86.91503006 302.95155299 C88.40443078 308.75141595 89.87197954 314.55659751 91.33218575 320.36388779 C91.94077141 322.76998666 92.55627164 325.17434906 93.17927361 327.57675552 C97.90932284 345.84210008 102.49471421 363.93408131 92.52734375 381.3359375 C86.25908612 390.73188836 78.74162671 396.59665543 67.91699219 399.87841797 C67.22209057 400.08915892 66.52718895 400.29989986 65.81122971 400.5170269 C57.77458505 402.91833852 49.65098905 404.97262208 41.515625 407.0078125 C39.79313656 407.44243217 38.07074797 407.87744772 36.34844971 408.31282043 C30.71303642 409.73565474 25.07533792 411.14930953 19.4375 412.5625 C17.4709294 413.05592857 15.50437683 413.54942899 13.5378418 414.04299927 C12.54851654 414.29129203 11.55919128 414.53958479 10.53988647 414.79540157 C8.50344627 415.3065094 6.46700831 415.81762618 4.43057251 416.32875156 C3.40330048 416.58657382 2.37602844 416.84439608 1.31762695 417.11003113 C0.27849152 417.37083151 -0.76064392 417.63163189 -1.83126831 417.90033531 C-5.04988096 418.7078128 -8.26871455 419.51440565 -11.48754883 420.32099915 C-25.58534823 423.85656246 -39.6698495 427.44171837 -53.74810791 431.05426025 C-62.33407122 433.25678845 -70.92415962 435.4430203 -79.51536179 437.62501526 C-85.48330709 439.14166804 -91.44897067 440.66627921 -97.41003418 442.20977783 C-103.05434068 443.67100451 -108.70380211 445.11037535 -114.35761261 446.53436852 C-116.43145436 447.06071352 -118.50336434 447.59474559 -120.57299042 448.13743019 C-136.17795324 452.22263133 -154.8307327 456.81035582 -169.8125 448.4375 C-185.28861741 438.99727724 -190.57016888 426.65263929 -194.76074219 409.64453125 C-195.13829002 408.14196453 -195.51666345 406.63960505 -195.8957901 405.13743591 C-196.92728693 401.04052024 -197.94714604 396.94078566 -198.96502781 392.84046936 C-200.0598027 388.43914526 -201.16540437 384.04054096 -202.26971436 379.64160156 C-204.40006708 371.14855103 -206.52071648 362.6531076 -208.63805747 354.15680504 C-211.01453546 344.62255888 -213.40144361 335.09093571 -215.78933048 325.5595417 C-221.89436782 301.18901772 -227.97915691 276.81344639 -234.0625 252.4375 C-237.76332849 237.60837494 -241.46503481 222.7794698 -245.16909981 207.9511528 C-245.88622733 205.08010622 -246.60317996 202.20901601 -247.32011414 199.33792114 C-252.10024811 180.1973152 -256.89424797 161.06050935 -261.75976562 141.94140625 C-261.9518597 141.18638573 -262.14395377 140.4313652 -262.34186888 139.65346527 C-264.28662729 132.01108533 -266.23663188 124.37007789 -268.19415283 116.73095703 C-268.50372673 115.51923325 -268.81330063 114.30750946 -269.13225555 113.05906677 C-269.69952026 110.8388491 -270.26873981 108.61912948 -270.8404007 106.40003967 C-274.48670208 92.11160673 -275.58209345 79.25634648 -268.5625 65.75 C-261.94174083 54.748145 -253.74960767 48.75154052 -241.48358154 45.02349854 C-240.78476828 44.80854429 -240.08595502 44.59359005 -239.3659656 44.37212205 C-231.8103496 42.08154356 -224.17500812 40.14470512 -216.51269531 38.24902344 C-214.95290162 37.85935815 -213.39321242 37.4692744 -211.83361816 37.07881165 C-207.64324187 36.03093362 -203.45145094 34.98882462 -199.25936222 33.94782162 C-194.817779 32.84376522 -190.37756711 31.73421971 -185.93719482 30.62530518 C-177.51005566 28.52161734 -169.08173254 26.42271467 -160.65295672 24.32559514 C-151.19680735 21.97263004 -141.74194511 19.61451457 -132.28721476 17.25585508 C-121.51880214 14.56951357 -110.75036877 11.88325393 -99.98081183 9.20150304 C-98.32284084 8.78862126 -96.66490275 8.3756073 -95.0069983 7.96245837 C-90.98652753 6.96074976 -86.96552922 5.96127445 -82.9432869 4.96670151 C-75.74036083 3.18298534 -68.54500419 1.37861723 -61.36918092 -0.51161408 C-58.1125168 -1.36841744 -54.85277635 -2.21317464 -51.59281683 -3.05734015 C-50.06989872 -3.45546211 -48.54852602 -3.85955682 -47.02899027 -4.27039957 C-30.55967799 -8.72125781 -14.81209602 -9.93593769 0 0 Z M-116.625 157.1875 C-121.91500055 165.04692939 -123.1716741 174.26317423 -125.00585938 183.38867188 C-125.21146484 184.38060547 -125.41707031 185.37253906 -125.62890625 186.39453125 C-125.80881104 187.29147705 -125.98871582 188.18842285 -126.17407227 189.11254883 C-126.8125 191.4375 -126.8125 191.4375 -128.8125 194.4375 C-131.14746094 195.63256836 -131.14746094 195.63256836 -134.046875 196.77734375 C-135.09617188 197.20080078 -136.14546875 197.62425781 -137.2265625 198.06054688 C-138.32742187 198.49431641 -139.42828125 198.92808594 -140.5625 199.375 C-155.53762846 205.0277421 -155.53762846 205.0277421 -165.125 217.375 C-166.59837252 223.93820488 -166.17761497 229.61654597 -162.8125 235.4375 C-157.04525781 241.65475288 -150.21588275 245.82606313 -142.8125 249.8125 C-140.93490931 250.8364094 -139.05976374 251.86481971 -137.1875 252.8984375 C-136.37023437 253.33978027 -135.55296875 253.78112305 -134.7109375 254.23583984 C-132.8125 255.4375 -132.8125 255.4375 -131.8125 257.4375 C-131.56681872 259.59204925 -131.37098328 261.7523644 -131.19921875 263.9140625 C-131.0280957 265.88052734 -131.0280957 265.88052734 -130.85351562 267.88671875 C-130.67506134 269.96616278 -130.50130651 272.04553341 -130.34106445 274.12646484 C-129.65106339 282.96228241 -129.03557342 290.44308897 -123.1015625 297.4609375 C-117.31710503 302.15911187 -112.41651991 304.09301896 -104.8125 303.4375 C-96.60640983 301.52274563 -91.76227754 296.15310262 -85.8125 290.4375 C-84.3639733 289.11418493 -82.90680972 287.80020049 -81.4375 286.5 C-80.85226563 285.97535156 -80.26703125 285.45070313 -79.6640625 284.91015625 C-79.05304688 284.42417969 -78.44203125 283.93820312 -77.8125 283.4375 C-77.09320313 282.84453125 -76.37390625 282.2515625 -75.6328125 281.640625 C-71.43985694 279.85194036 -68.35349432 280.98097245 -64.0625 282.125 C-63.30195313 282.31255859 -62.54140625 282.50011719 -61.7578125 282.69335938 C-60.21858273 283.07294909 -58.68088418 283.45880147 -57.14477539 283.85083008 C-54.77283577 284.4474773 -52.39649722 285.01167744 -50.01171875 285.5546875 C-49.31135498 285.71437012 -48.61099121 285.87405273 -47.8894043 286.03857422 C-40.71606868 287.41640781 -35.48919222 286.51849762 -29.05078125 283.00390625 C-24.80121814 280.02995371 -22.45650847 276.36952542 -20.8125 271.4375 C-19.68178602 261.86722037 -22.14003011 255.00384219 -26.3125 246.5 C-27.35185549 244.32807901 -28.38344741 242.15242125 -29.40625 239.97265625 C-30.09750977 238.55545288 -30.09750977 238.55545288 -30.80273438 237.10961914 C-31.88936247 234.23410064 -32.21015878 232.47806482 -31.8125 229.4375 C-30.66674805 227.03735352 -30.66674805 227.03735352 -29.07421875 224.56640625 C-28.50123047 223.66212891 -27.92824219 222.75785156 -27.33789062 221.82617188 C-26.73138672 220.89353516 -26.12488281 219.96089844 -25.5 219 C-17.04161196 206.75076359 -17.04161196 206.75076359 -15.8125 192.4375 C-17.89012953 185.61243682 -21.24126799 181.41051673 -27.140625 177.49609375 C-34.04735391 174.75965583 -41.09907759 175.42772348 -48.3125 176.375 C-51.47601208 176.77495463 -54.6381286 177.13502235 -57.8125 177.4375 C-59.00153931 177.56415039 -59.00153931 177.56415039 -60.21459961 177.69335938 C-64.55472565 177.964589 -66.23831141 177.87206145 -69.81640625 175.1640625 C-70.69555251 174.15246263 -71.54786752 173.11705407 -72.375 172.0625 C-72.83696777 171.52101318 -73.29893555 170.97952637 -73.77490234 170.42163086 C-75.92765322 167.87302752 -77.95634982 165.24786795 -79.97265625 162.58984375 C-84.84910295 156.16224104 -89.27328635 151.31586102 -97.546875 150.00390625 C-105.53544956 149.63978614 -110.93742266 151.62631327 -116.625 157.1875 Z " fill="#000000" transform="translate(273.8125,59.5625)"/>
<path d="M0 0 C2.03534 0.50771612 4.07116852 1.01347716 6.10743713 1.51745605 C11.57897768 2.87764419 17.04321372 4.26523527 22.50637937 5.6586256 C28.24999024 7.11884367 33.99974574 8.55447517 39.74876404 9.9932251 C49.38938126 12.40958306 59.0256722 14.84256812 68.65917969 17.28710938 C81.00471531 20.41975308 93.35696447 23.52502222 105.71157932 26.62163925 C116.37038027 29.29340058 127.0261285 31.97726123 137.6813457 34.66327381 C141.09083541 35.52226505 144.50071679 36.37968789 147.91064644 37.23693085 C153.27319204 38.58591362 158.63377656 39.94244186 163.99295616 41.30473328 C165.95387478 41.80210988 167.91538162 42.29717428 169.87752533 42.78969574 C187.2613994 47.15641901 203.39822638 51.29625656 213.31420898 67.60253906 C220.94779763 81.80456444 219.38537872 94.91420836 215.51733398 110.04785156 C215.14515523 111.54047838 214.77402406 113.03336671 214.40383911 114.52648926 C213.38426694 118.62625612 212.35018085 122.72224138 211.31368256 126.81775665 C210.19742986 131.23916777 209.09469736 135.66395016 207.99047852 140.08837891 C206.03990816 147.89693668 204.08106844 155.70338483 202.11791992 163.50878906 C199.01797306 175.8370083 195.94072438 188.17084271 192.86688805 200.50559425 C181.69768839 245.3235269 170.51533614 290.13871573 159.10791016 334.89672852 C158.58980652 336.9298493 158.07171201 338.96297241 157.55364799 340.99610329 C157.21336574 342.33147593 156.87302033 343.66683248 156.53260994 345.00217247 C154.12666904 354.44374778 151.75470211 363.89339877 149.40333557 373.34870911 C148.0377283 378.83999353 146.66461204 384.3293926 145.28991604 389.81840801 C144.18129896 394.24800105 143.08257421 398.67988458 141.9916687 403.11387062 C141.16450711 406.46270253 140.32210072 409.80766709 139.48217773 413.15332031 C139.0489772 414.9354895 139.0489772 414.9354895 138.60702515 416.75366211 C135.26441156 429.93404231 129.54973253 441.4663567 117.90795898 449.22753906 C110.39924603 453.4689877 101.53585811 456.0603872 92.90795898 455.29003906 C90.15466877 453.49441501 88.38168437 452.23748984 86.90795898 449.29003906 C86.15137755 443.36348452 87.90714025 439.57817358 90.61889648 434.32910156 C97.88256489 417.20445302 93.42662311 398.79607401 88.85041618 381.63362503 C87.79522516 377.67275078 86.76815178 373.70543516 85.74891663 369.73519897 C85.37057386 368.26276549 84.99216859 366.79034807 84.61370564 365.31794548 C84.4187644 364.55949766 84.22382316 363.80104984 84.02297461 363.01961875 C83.40202553 360.6087984 82.77796507 358.19880128 82.15317822 355.78897285 C78.34563864 341.08911539 74.65360213 326.36120768 70.98168945 311.62695312 C70.67394443 310.39218153 70.3661994 309.15740993 70.04912877 307.885221 C68.76998734 302.75192455 67.49122631 297.61853352 66.21318066 292.48496413 C63.89292314 283.16544658 61.56812212 273.84707158 59.24014282 264.52947998 C59.07306263 263.86074432 58.90598243 263.19200866 58.7338392 262.50300828 C57.88458531 259.10398516 57.03525156 255.70498201 56.18587422 252.30598974 C54.46467851 245.41811891 52.74406113 238.5301036 51.0234375 231.64208984 C50.85185988 230.95524804 50.68028225 230.26840624 50.5035053 229.56075105 C47.69828591 218.33109691 44.89472974 207.10102813 42.09173053 195.87081964 C39.17187637 184.17259762 36.2501909 172.47483405 33.32686335 160.77747953 C31.70198801 154.27551299 30.07795699 147.77333847 28.45597649 141.27064896 C26.9385584 135.18725187 25.41885499 129.10442999 23.89750671 123.02201462 C23.34649726 120.81743472 22.79627002 118.61265911 22.24696541 116.40765381 C19.32092109 104.66408271 16.32938067 92.93834668 13.23512268 81.23788452 C12.95325417 80.15448591 12.67138565 79.0710873 12.38097566 77.95485842 C7.81044988 60.84176898 -1.24044405 48.2876136 -16.51782227 39.20410156 C-24.98929114 34.47402606 -34.27539528 32.00304299 -43.97094727 32.36816406 C-45.05698242 32.39394531 -46.14301758 32.41972656 -47.26196289 32.44628906 C-49.52806941 32.50891031 -51.79379797 32.58709959 -54.05883789 32.68066406 C-62.32710437 32.83787412 -62.32710437 32.83787412 -66.32641602 29.97363281 C-68.75548183 26.28166774 -68.88023341 24.66092416 -68.09204102 20.29003906 C-66.40803699 16.72087012 -64.3526485 13.51947833 -62.09204102 10.29003906 C-61.63571289 9.63519531 -61.17938477 8.98035156 -60.70922852 8.30566406 C-45.66891794 -11.11782274 -20.38452951 -5.26221548 0 0 Z " fill="#000000" transform="translate(293.092041015625,4.7099609375)"/>
<path d="M0 0 C4.54934554 0.59619522 6.42126536 3.03391452 9.24609375 6.37109375 C9.77187012 6.96212891 10.29764648 7.55316406 10.83935547 8.16210938 C13.73949836 11.4586618 16.38509084 14.85600416 18.93359375 18.43359375 C22.47067253 23.07280577 26.63651082 25.97148947 32.30859375 27.43359375 C40.81680297 28.00069119 49.2433633 26.93255846 57.67382812 25.88085938 C58.60388672 25.78095703 59.53394531 25.68105469 60.4921875 25.578125 C61.32290771 25.47862549 62.15362793 25.37912598 63.00952148 25.27661133 C65.91544273 25.47502986 67.16548037 26.53007546 69.30859375 28.43359375 C69.06498192 35.51782563 65.6912529 40.19026899 61.87109375 45.99609375 C54.59874683 56.79208782 54.59874683 56.79208782 53.30859375 69.43359375 C55.14417825 75.16881055 57.51628983 80.6847379 59.9765625 86.17578125 C60.25032715 86.79316162 60.5240918 87.41054199 60.80615234 88.04663086 C61.58224193 89.78411362 62.37659475 91.51340449 63.171875 93.2421875 C64.36038 96.57898676 64.68746331 98.9227358 64.30859375 102.43359375 C62.30859375 104.43359375 62.30859375 104.43359375 60.29931641 104.50244141 C52.99605971 103.66898869 46.07132413 102.0040913 38.98828125 100.07421875 C30.99543771 98.02899114 24.64223379 98.1448885 17.2421875 102.140625 C14.50345946 103.97197648 12.34752902 106.172706 10.09765625 108.56640625 C7.59870279 111.17448432 4.90018803 113.51061054 2.15234375 115.8515625 C0.62123176 117.16533444 -0.85545898 118.5422154 -2.31640625 119.93359375 C-4.69140625 121.43359375 -4.69140625 121.43359375 -8.00390625 121.18359375 C-9.33421875 120.81234375 -9.33421875 120.81234375 -10.69140625 120.43359375 C-13.16192166 113.22622236 -13.34135187 105.97734429 -13.7265625 98.4140625 C-14.26607662 90.34170979 -15.48850902 83.75930146 -21.23828125 77.7890625 C-25.87365642 74.38832971 -30.96427853 71.60729413 -35.94140625 68.74609375 C-37.92735777 67.59907944 -39.91181037 66.44946476 -41.89453125 65.296875 C-42.76754883 64.79454346 -43.64056641 64.29221191 -44.54003906 63.7746582 C-46.69140625 62.43359375 -46.69140625 62.43359375 -48.69140625 60.43359375 C-49.19140625 58.05859375 -49.19140625 58.05859375 -48.69140625 55.43359375 C-42.59130069 50.44923399 -34.84843245 48.19879273 -27.54492188 45.49609375 C-20.65751799 42.78066065 -15.41594129 40.03559427 -11.69140625 33.43359375 C-10.16937499 29.31482653 -9.23798137 25.17153765 -8.37890625 20.87109375 C-7.90459955 18.6820848 -7.42936415 16.49327684 -6.953125 14.3046875 C-6.73833496 13.28745605 -6.52354492 12.27022461 -6.30224609 11.22216797 C-3.98463642 0.64193707 -3.98463642 0.64193707 0 0 Z " fill="#000000" transform="translate(172.69140625,225.56640625)"/>
</svg>
